<svg width="22" xmlns="http://www.w3.org/2000/svg" height="36" id="screenshot-0e2256ab-748c-80d8-8007-ab45664f9ebe" viewBox="0 0 22 36" xmlns:xlink="http://www.w3.org/1999/xlink" fill="none" version="1.1"><g id="shape-0e2256ab-748c-80d8-8007-ab45664f9ebe" rx="0" ry="0"><g id="shape-0e2256ab-748c-80d8-8007-ab428237941c"><g class="fills" id="fills-0e2256ab-748c-80d8-8007-ab428237941c"><rect rx="7" ry="7" x="4" y="0" transform="matrix(1.000000, 0.000000, 0.000000, 1.000000, 0.000000, 0.000000)" width="14" height="28"/></g><g id="strokes-385e40a3-af30-8047-8007-ab45b8b4d9dc-0e2256ab-748c-80d8-8007-ab428237941c" class="strokes"><g class="stroke-shape"><rect rx="7" ry="7" x="4" y="0" transform="matrix(1.000000, 0.000000, 0.000000, 1.000000, 0.000000, 0.000000)" width="14" height="28" style="fill: none; stroke-width: 1; stroke: rgb(0, 0, 0); stroke-opacity: 1;"/></g></g></g><g id="shape-0e2256ab-748c-80d8-8007-ab444129e5f2"><g class="fills" id="fills-0e2256ab-748c-80d8-8007-ab444129e5f2"><path d="M22,20.70001220703125C22,26.77105712890625,17.071044921875,31.70001220703125,11,31.70001220703125L11,31.70001220703125C4.928955078125,31.70001220703125,0,26.77105712890625,0,20.70001220703125"/></g><g id="strokes-385e40a3-af30-8047-8007-ab45b8b5b38f-0e2256ab-748c-80d8-8007-ab444129e5f2" class="strokes"><g class="stroke-shape"><path d="M22,20.70001220703125C22,26.77105712890625,17.071044921875,31.70001220703125,11,31.70001220703125L11,31.70001220703125C4.928955078125,31.70001220703125,0,26.77105712890625,0,20.70001220703125" style="fill: none; stroke-width: 1; stroke: rgb(0, 0, 0); stroke-opacity: 1; stroke-linecap: round;"/></g></g></g><g id="shape-0e2256ab-748c-80d8-8007-ab435b3bc9fb"><g class="fills" id="fills-0e2256ab-748c-80d8-8007-ab435b3bc9fb"><path d="M11,36L11,32"/></g><g id="strokes-385e40a3-af30-8047-8007-ab45b8b6257a-0e2256ab-748c-80d8-8007-ab435b3bc9fb" class="strokes"><g class="stroke-shape"><defs><marker refX="3" fill-opacity="1" orient="auto-start-reverse" id="marker-render-4-round" viewBox="0 0 6 6" fill="#000000" refY="3" markerWidth="6" markerHeight="6"><path d="M 3 2.5 A 0.5 0.5 0 0 1 3 3.5 "/></marker></defs><path d="M11,36L11,32" style="fill: none; stroke-width: 1; stroke: rgb(0, 0, 0); stroke-opacity: 1; marker-start: url(&quot;#marker-render-4-round&quot;);"/></g></g></g></g></svg>